<svg xmlns="http://www.w3.org/2000/svg" viewBox="0 0 32 32"><defs><linearGradient id="g" x1="4" y1="3" x2="28" y2="27" gradientUnits="userSpaceOnUse"><stop offset="0" stop-color="#dd7710"/><stop offset="0.84" stop-color="#dd5b10"/><stop offset="0.99" stop-color="#94031c"/></linearGradient></defs><path fill="url(#g)" d="M18.27,8.32A6.21,6.21,0,0,1,19.73,8h.2l0-.67h-.23a7,7,0,0,0-1.7.4l-.15.06.23.63Z"/><path fill="url(#g)" d="M7.26,8,8.75,8a1.12,1.12,0,1,0,0-.67l-1.49,0A1.13,1.13,0,1,0,6.18,8.75,1.12,1.12,0,0,0,7.26,8Zm2.58-.75a.46.46,0,0,1,.46.46.47.47,0,0,1-.46.46.46.46,0,0,1-.46-.46A.45.45,0,0,1,9.84,7.21Zm-3.66.87a.46.46,0,0,1-.46-.46.47.47,0,1,1,.46.46Z"/><path fill="url(#g)" d="M14,22.22c0-1.94,0-3.64,0-5.27v0c0-1.73,0-3.51,0-5.57h0a2,2,0,0,0-.46-1.17,2,2,0,0,0-1.49-.66h-3A1.13,1.13,0,1,0,8.06,11a1.13,1.13,0,0,0,1.09-.82h3a1.33,1.33,0,0,1,1,.43,1.28,1.28,0,0,1,.3.75c0,2.08,0,3.87,0,5.6v0c0,1.63,0,3.31,0,5.24a1.13,1.13,0,1,0,1.46,1.08A1.12,1.12,0,0,0,14,22.22Zm-.34,1.54a.47.47,0,1,1,.46-.47A.47.47,0,0,1,13.7,23.76ZM8.06,9.39a.47.47,0,0,1,.47.46.47.47,0,1,1-.47-.46Z"/><path fill="url(#g)" d="M18.5,22.21c0-3.9,0-9.78,0-9.83,0-.26,0-.51,0-.77A8.2,8.2,0,0,0,17.91,9a6,6,0,0,0-1.45-2,7.7,7.7,0,0,0-1.15-.86,6.21,6.21,0,0,0-3.08-.87c-1,0-2.23,0-3.14,0H5.21a1.12,1.12,0,1,0,0,.67H9.09c.91,0,2.09,0,3.12,0A5.45,5.45,0,0,1,15,6.7,5.72,5.72,0,0,1,17.3,9.27a7.58,7.58,0,0,1,.53,2.39c0,.24,0,.48,0,.72,0,0,0,5.94,0,9.83a1.13,1.13,0,1,0,.67,0Zm-.34.62a.47.47,0,1,1-.46.46A.46.46,0,0,1,18.16,22.83ZM4.13,5.11a.47.47,0,0,1,.47.46.47.47,0,1,1-.47-.46Z"/><path fill="url(#g)" d="M23.88,8.72a1.15,1.15,0,0,0-1.09.81H21.12c-.53,0-.87,0-1,0a5.76,5.76,0,0,0-1.23.26l-.15,0,.21.64.16-.06a5.4,5.4,0,0,1,1.05-.23H22.8a1.13,1.13,0,1,0,1.08-1.48Zm0,1.59a.45.45,0,0,1-.46-.46.46.46,0,0,1,.46-.46.47.47,0,0,1,.46.46A.46.46,0,0,1,23.88,10.31Z"/><path fill="url(#g)" d="M25.61,6.54a1.12,1.12,0,0,0-1.07.77l-1.5,0A1.13,1.13,0,1,0,23,8l1.48,0a1.15,1.15,0,0,0,1.09.82,1.13,1.13,0,0,0,0-2.26Zm0,1.59a.47.47,0,0,1-.46-.46.46.46,0,0,1,.46-.46.45.45,0,0,1,.46.46A.46.46,0,0,1,25.61,8.13ZM22,8.08a.46.46,0,0,1-.47-.46.47.47,0,0,1,.93,0A.46.46,0,0,1,22,8.08Z"/><path fill="url(#g)" d="M27.87,4.44a1.13,1.13,0,0,0-1.08.79H21.63c-1.16,0-1.51,0-1.69,0h-.47a4.26,4.26,0,0,0-.83.12A6.82,6.82,0,0,0,16.9,6l-.36.2-.15.08.33.58.15-.08.33-.18A6.87,6.87,0,0,1,18.77,6a5.5,5.5,0,0,1,.73-.1h.4c.19,0,.56,0,1.74,0h5.14a1.13,1.13,0,1,0,1.09-1.46Zm0,1.59a.46.46,0,0,1-.47-.46.47.47,0,0,1,.93,0A.46.46,0,0,1,27.87,6Z"/><path fill="url(#g)" d="M16.27,25.35c0-2.31,0-11.45,0-13.85h0a4.12,4.12,0,0,0-.58-2,4.24,4.24,0,0,0-1.39-1.41A4.29,4.29,0,0,0,12,7.46h-.34l0,.67H12a3.62,3.62,0,0,1,1.9.53,3.55,3.55,0,0,1,1.16,1.18,3.46,3.46,0,0,1,.49,1.66c0,2.44,0,4.77,0,7.1s0,4.43,0,6.74a1.13,1.13,0,1,0,1.46,1.09A1.13,1.13,0,0,0,16.27,25.35Zm-.35,1.54a.47.47,0,0,1-.46-.46.47.47,0,0,1,.93,0A.47.47,0,0,1,15.92,26.89Z"/></svg>